<?xml version="1.0" encoding="utf-8"?>
<!-- Generator: Adobe Illustrator 24.2.3, SVG Export Plug-In . SVG Version: 6.00 Build 0)  -->
<svg version="1.1" id="Layer_1" xmlns="http://www.w3.org/2000/svg" xmlns:xlink="http://www.w3.org/1999/xlink" x="0px" y="0px"
	 viewBox="0 0 72 24" style="enable-background:new 0 0 72 24;" xml:space="preserve">
<g>
	<polygon points="57.9,5.2 46.6,5.2 46.6,7.3 51.2,7.3 51.2,18.2 53.4,18.2 53.4,7.3 57.9,7.3 	"/>
	<polygon points="16.9,7.3 16.9,18.1 6.5,5.2 3.7,5.2 3.7,18.2 5.9,18.2 5.9,8 14.1,18.2 16.9,18.2 17,18.2 28.1,18.2 28.1,16.1 
		19.1,16.1 19.1,12.7 26.4,12.7 26.4,10.6 19.1,10.6 19.1,7.3 28.1,7.3 28.1,5.2 16.9,5.2 	"/>
	<polygon points="44.2,5.2 41.3,5.2 37.5,9.9 33.8,5.2 30.9,5.2 41.4,18.2 44.3,18.2 39,11.7 	"/>
	<polygon points="30.8,18.2 33.7,18.2 36.8,14.5 35.3,12.7 	"/>
	<path d="M58.4,16.9c-0.1,0-0.3,0.1-0.4,0.2c-0.1,0.1-0.2,0.2-0.2,0.4c0,0.1,0.1,0.3,0.2,0.4c0.1,0.1,0.2,0.2,0.4,0.2
		c0.1,0,0.2,0,0.3-0.1c0.1,0,0.1-0.1,0.2-0.2c0.1-0.1,0.1-0.2,0.1-0.3c0-0.2-0.1-0.3-0.2-0.4C58.7,17,58.6,16.9,58.4,16.9z"/>
	<path d="M62.4,16.5c0,0.2,0,0.4-0.1,0.5c-0.1,0.1-0.2,0.2-0.3,0.3c-0.1,0.1-0.2,0.1-0.4,0.1c-0.2,0-0.3,0-0.4-0.1
		c-0.1,0-0.2-0.1-0.3-0.2c-0.1-0.1-0.1-0.3-0.1-0.4h-1c0,0.3,0,0.6,0.2,0.8c0.1,0.2,0.3,0.4,0.6,0.5c0.3,0.1,0.6,0.2,0.9,0.2
		s0.6-0.1,0.9-0.2c0.2-0.2,0.5-0.3,0.6-0.6c0.1-0.3,0.2-0.5,0.2-0.9v-3.8h-0.8V16.5z"/>
	<path d="M68.3,15.9c-0.1-0.1-0.2-0.3-0.4-0.4c-0.1-0.1-0.3-0.2-0.5-0.3C67.2,15.1,67,15,66.8,15l-0.5-0.1c-0.1,0-0.2-0.1-0.3-0.1
		s-0.2,0-0.3-0.1c-0.1,0-0.1-0.1-0.2-0.2s-0.1-0.2-0.1-0.3c0-0.2,0-0.3,0.1-0.4c0-0.2,0.2-0.2,0.3-0.3c0.1-0.1,0.3-0.1,0.5-0.1
		c0.3,0,0.5,0.1,0.7,0.2c0.2,0.1,0.3,0.3,0.3,0.5v0.1h0.9c0-0.3-0.1-0.6-0.3-0.8c-0.2-0.3-0.4-0.5-0.7-0.6c-0.3-0.1-0.6-0.2-1-0.2
		c-0.3,0-0.7,0.1-1,0.2c-0.3,0.2-0.5,0.4-0.7,0.6c-0.2,0.2-0.3,0.5-0.3,0.8c0,0.4,0.1,0.7,0.4,0.9c0.3,0.2,0.6,0.4,1.1,0.5l0.6,0.2
		c0.2,0.1,0.4,0.1,0.5,0.2c0.2,0,0.3,0.1,0.7,0.1c0.1,0.1,0.1,0.3,0.1,0.4s0,0.3-0.1,0.4c-0.1,0.1-0.2,0.2-0.4,0.3
		c-0.2,0.1-0.4,0.1-0.6,0.1s-0.4,0-0.6-0.1c-0.2-0.1-0.3-0.2-0.4-0.3c-0.1-0.2-0.2-0.3-0.2-0.5h-1c0,0.3,0.1,0.6,0.3,0.9
		c0.1,0.3,0.4,0.5,0.7,0.6c0.3,0.1,0.7,0.2,1.1,0.2c0.4,0,0.8-0.1,1.1-0.2c0.3-0.2,0.5-0.4,0.7-0.6c0.1-0.2,0.2-0.5,0.2-0.8
		C68.4,16.3,68.4,16.1,68.3,15.9z"/>
</g>
</svg>
